<svg width="40" height="40" viewBox="0 0 40 40" fill="none" xmlns="http://www.w3.org/2000/svg">
<g clip-path="url(#clip0_908_13951)">
<path d="M20.0008 0.799805C9.39678 0.799805 0.800781 9.39581 0.800781 19.9998C0.800781 30.6038 9.39678 39.1998 20.0008 39.1998C30.6048 39.1998 39.2008 30.6038 39.2008 19.9998C39.2008 9.39581 30.6048 0.799805 20.0008 0.799805ZM15.3008 27.9578H11.4128V15.4458H15.3008V27.9578ZM13.3328 13.9098C12.1048 13.9098 11.3108 13.0398 11.3108 11.9638C11.3108 10.8658 12.1288 10.0218 13.3828 10.0218C14.6368 10.0218 15.4048 10.8658 15.4288 11.9638C15.4288 13.0398 14.6368 13.9098 13.3328 13.9098ZM29.5008 27.9578H25.6128V21.0238C25.6128 19.4098 25.0488 18.3138 23.6428 18.3138C22.5688 18.3138 21.9308 19.0558 21.6488 19.7698C21.5448 20.0238 21.5188 20.3838 21.5188 20.7418V27.9558H17.6288V19.4358C17.6288 17.8738 17.5788 16.5678 17.5268 15.4438H20.9048L21.0828 17.1818H21.1608C21.6728 16.3658 22.9268 15.1618 25.0248 15.1618C27.5828 15.1618 29.5008 16.8758 29.5008 20.5598V27.9578Z" fill="white"/>
</g>
<defs>
<clipPath id="clip0_908_13951">
<rect width="40" height="40" fill="white"/>
</clipPath>
</defs>
</svg>
